<svg id="Capa_1" data-name="Capa 1" xmlns="http://www.w3.org/2000/svg" viewBox="0 0 39.36 48.64"><defs><style>.cls-1{fill:#1d1d1b;}</style></defs><rect class="cls-1" x="1.66" y="1.95" width="36.04" height="22.68" rx="0.63"/><path class="cls-1" d="M28.86,37.15H26.35v-9a.63.63,0,0,0-.62-.63H13.56a.63.63,0,0,0-.62.63v9H10.4a.63.63,0,0,0,0,1.25h2.22v2.11a.62.62,0,0,0,.62.62h5.44L19,45.22a.66.66,0,0,0,.65.57.63.63,0,0,0,.63-.57l.31-4.09H26a.62.62,0,0,0,.62-.62V38.4h2.22a.63.63,0,0,0,0-1.25Zm-15,2.16H25.39v.57H20a.65.65,0,0,0-.38.13.64.64,0,0,0-.37-.13H13.87Z"/></svg>