<svg id="Capa_1" data-name="Capa 1" xmlns="http://www.w3.org/2000/svg" viewBox="0 0 39.36 48.64"><defs><style>.cls-1{fill:#1d1d1b;}</style></defs><path class="cls-1" d="M36.9,2H2.11a.63.63,0,0,0-.63.62V24a.62.62,0,0,0,.63.62H36.9a.62.62,0,0,0,.63-.62V2.57A.63.63,0,0,0,36.9,2Zm-.62,21.42H2.73V3.2H36.28Z"/><path class="cls-1" d="M28.69,37.15H26.18v-9a.63.63,0,0,0-.63-.63H13.39a.63.63,0,0,0-.62.63v9H10.23a.63.63,0,0,0,0,1.25h2.22v2.11a.62.62,0,0,0,.62.62h5.44l.31,4.09a.66.66,0,0,0,.65.57.63.63,0,0,0,.63-.57l.31-4.09h5.44a.62.62,0,0,0,.62-.62V38.4h2.22a.63.63,0,0,0,0-1.25ZM14,28.81H24.93v9.25H14Zm11.2,11.07H19.83a.64.64,0,0,0-.37.13.65.65,0,0,0-.38-.13H13.7v-.57H25.22Z"/></svg>